# xmcd
#
# Track frame offsets:
#	150
#	17566
#	33107
#	49038
#	64653
#	81979
#	96728
#	114745
#	129267
#	144841
#	157684
#	173002
#	195075
#	211691
#	225657
#	241378
#
# Disc length: 3459 seconds
#
# Revision: 1
# Processed by: cddbd v1.5.2PL0 Copyright (c) Steve Scherf et al.
# Submitted via: audiograbber 1.83.01
#
DISCID=bf0d8110
DTITLE=Various Artist - Country Heat Summer 2009
DYEAR=2009
DGENRE=Country
TTITLE0=Alan Jackson with Jimmy Buffett - It's Five O'Clock SOmewhere
TTITLE1=Faith Hill - Sunshine And Summertime
TTITLE2=Brad Paisley - Mud On The Tires
TTITLE3=Kenny Chesney - Summertime
TTITLE4=Craig Morgan - Redneck Yacht Club
TTITLE5=Brooks and Dunn - Play Something Country
TTITLE6=Shooter Jennings - Walk Of Life
TTITLE7=Jason Aldean - Johnny Cash
TTITLE8=Blake Shelton - Some Beach
TTITLE9=Gretchen Wilson - California Girls
TTITLE10=Big and Rich - Save A Horse, Ride A Cowboy
TTITLE11=Montgomery Gentry - Hell Yeah
TTITLE12=Phil Vassar - Six-Pack Summer
TTITLE13=Tracy Byrd - Ten Rounds with Jose Cuervo
TTITLE14=Aaron Lines - Cheaper To Keep Her
TTITLE15=Carrie Underwood - Last Name
EXTD=
EXTT0=
EXTT1=
EXTT2=
EXTT3=
EXTT4=
EXTT5=
EXTT6=
EXTT7=
EXTT8=
EXTT9=
EXTT10=
EXTT11=
EXTT12=
EXTT13=
EXTT14=
EXTT15=
PLAYORDER=
